<svg width="217" height="54" viewBox="0 0 217 54" fill="none" xmlns="http://www.w3.org/2000/svg">
<path d="M20.96 53.44C16.9067 53.44 13.28 52.56 10.08 50.8C6.93333 48.9867 4.45333 46.5067 2.64 43.36C0.88 40.2133 0 36.5867 0 32.48C0 28.3733 0.88 24.7467 2.64 21.6C4.4 18.4533 6.85333 16 10 14.24C13.1467 12.4267 16.7467 11.52 20.8 11.52C24.9067 11.52 28.5333 12.4267 31.68 14.24C34.8267 16 37.28 18.4533 39.04 21.6C40.8 24.7467 41.68 28.3733 41.68 32.48C41.68 36.5867 40.8 40.2133 39.04 43.36C37.28 46.5067 34.8267 48.9867 31.68 50.8C28.5867 52.56 25.0133 53.44 20.96 53.44ZM20.96 43.68C22.9333 43.68 24.6667 43.2 26.16 42.24C27.6533 41.28 28.8 39.9733 29.6 38.32C30.4533 36.6133 30.88 34.6667 30.88 32.48C30.88 30.2933 30.4533 28.3733 29.6 26.72C28.7467 25.0133 27.5467 23.68 26 22.72C24.5067 21.76 22.7733 21.28 20.8 21.28C18.88 21.28 17.1467 21.76 15.6 22.72C14.1067 23.68 12.9333 25.0133 12.08 26.72C11.2267 28.3733 10.8 30.2933 10.8 32.48C10.8 34.6667 11.2267 36.6133 12.08 38.32C12.9333 39.9733 14.1333 41.28 15.68 42.24C17.2267 43.2 18.9867 43.68 20.96 43.68Z" fill="#1E1E1E"/>
<path d="M46.2444 52.48V19.48C46.2444 15.614 49.3784 12.48 53.2444 12.48H56.8044V52.48H46.2444ZM72.7244 52.48V32H83.2844V52.48H72.7244ZM72.7244 32C72.7244 29.28 72.4044 27.1733 71.7644 25.68C71.1777 24.1867 70.3244 23.12 69.2044 22.48C68.0844 21.7867 66.7777 21.44 65.2844 21.44C62.5644 21.3867 60.4577 22.2133 58.9644 23.92C57.5244 25.6267 56.8044 28.16 56.8044 31.52H53.2844C53.2844 27.2533 53.8977 23.6533 55.1244 20.72C56.4044 17.7333 58.1644 15.4667 60.4044 13.92C62.6977 12.32 65.3644 11.52 68.4044 11.52C71.551 11.52 74.2444 12.16 76.4844 13.44C78.7244 14.72 80.431 16.72 81.6044 19.44C82.7777 22.1067 83.3377 25.5733 83.2844 29.84V32H72.7244Z" fill="#1E1E1E"/>
<path d="M101.499 52.48L115.229 16.3487C116.114 14.0197 118.347 12.48 120.838 12.48H127.579L111.179 52.48H101.499ZM100.619 52.48L84.2194 12.48H90.9608C93.4522 12.48 95.6845 14.0197 96.5695 16.3487L110.299 52.48H100.619Z" fill="#1E1E1E"/>
<path d="M130.913 52.48V21.44H141.473V52.48H130.913Z" fill="#1E1E1E"/>
<path d="M165.29 53.44C160.863 53.44 157.503 52.3467 155.21 50.16C152.97 47.9733 151.85 44.8533 151.85 40.8V0H162.41V38.48C162.41 40.1867 162.783 41.4933 163.53 42.4C164.277 43.2533 165.37 43.68 166.81 43.68C167.343 43.68 167.93 43.5733 168.57 43.36C169.21 43.0933 169.877 42.72 170.57 42.24L174.25 50.16C172.97 51.12 171.53 51.8933 169.93 52.48C168.383 53.12 166.837 53.44 165.29 53.44ZM145.37 21.44V17.48C145.37 14.7186 147.609 12.48 150.37 12.48H172.41V21.44H145.37Z" fill="#1E1E1E"/>
<path d="M195.974 53.44C192.028 53.44 188.534 52.56 185.494 50.8C182.454 48.9867 180.054 46.5067 178.294 43.36C176.588 40.2133 175.734 36.5867 175.734 32.48C175.734 28.3733 176.614 24.7467 178.374 21.6C180.188 18.4533 182.641 16 185.734 14.24C188.881 12.4267 192.481 11.52 196.534 11.52C200.054 11.52 203.281 12.4533 206.214 14.32C209.201 16.1333 211.574 18.8267 213.334 22.4C215.148 25.92 216.054 30.2133 216.054 35.28H185.734L186.694 34.32C186.694 36.2933 187.174 38.0267 188.134 39.52C189.148 40.96 190.428 42.08 191.974 42.88C193.574 43.6267 195.281 44 197.094 44C199.281 44 201.068 43.5467 202.454 42.64C203.841 41.68 204.908 40.4533 205.654 38.96L215.094 42.64C213.974 44.88 212.508 46.8267 210.694 48.48C208.934 50.08 206.828 51.3067 204.374 52.16C201.921 53.0133 199.121 53.44 195.974 53.44ZM187.254 28.4L186.294 27.44H205.574L204.694 28.4C204.694 26.48 204.241 24.96 203.334 23.84C202.428 22.6667 201.308 21.8133 199.974 21.28C198.694 20.7467 197.441 20.48 196.214 20.48C194.988 20.48 193.681 20.7467 192.294 21.28C190.908 21.8133 189.708 22.6667 188.694 23.84C187.734 24.96 187.254 26.48 187.254 28.4Z" fill="#1E1E1E"/>
<path d="M142.537 12.6639C142.537 16.019 139.818 18.7389 136.464 18.7389C133.11 18.7389 130.391 16.019 130.391 12.6639C130.391 9.30874 133.11 6.58887 136.464 6.58887C139.818 6.58887 142.537 9.30874 142.537 12.6639Z" fill="#1E1E1E"/>
</svg>
